<?xml version="1.0" encoding="UTF-8"?>
<svg version="1.1" xmlns="http://www.w3.org/2000/svg" width="2420" height="2372">
<path d="M0 0 C167.97 0 335.94 0 509 0 C509 58.08 509 116.16 509 176 C668.39 176 827.78 176 992 176 C992 158.18 992 140.36 992 122 C1079.78 122 1167.56 122 1258 122 C1258 139.82 1258 157.64 1258 176 C1417.39 176 1576.78 176 1741 176 C1741 117.92 1741 59.84 1741 0 C1908.97 0 2076.94 0 2250 0 C2250 167.97 2250 335.94 2250 509 C2082.03 509 1914.06 509 1741 509 C1741 451.25 1741 393.5 1741 334 C1581.61 334 1422.22 334 1258 334 C1258 351.82 1258 369.64 1258 388 C1237.21 388 1216.42 388 1195 388 C1195 547.06 1195 706.12 1195 870 C1256.05 870 1317.1 870 1380 870 C1380 1037.97 1380 1205.94 1380 1379 C1212.03 1379 1044.06 1379 871 1379 C871 1320.92 871 1262.84 871 1203 C751.54 1203 632.08 1203 509 1203 C509 1261.08 509 1319.16 509 1379 C451.25 1379 393.5 1379 334 1379 C334 1497.8 334 1616.6 334 1739 C391.75 1739 449.5 1739 509 1739 C509 1906.97 509 2074.94 509 2248 C341.03 2248 173.06 2248 0 2248 C0 2080.03 0 1912.06 0 1739 C58.08 1739 116.16 1739 176 1739 C176 1620.2 176 1501.4 176 1379 C117.92 1379 59.84 1379 0 1379 C0 1211.03 0 1043.06 0 870 C58.08 870 116.16 870 176 870 C176 750.87 176 631.74 176 509 C117.92 509 59.84 509 0 509 C0 341.03 0 173.06 0 0 Z M509 334 C509 391.75 509 449.5 509 509 C451.25 509 393.5 509 334 509 C334 628.13 334 747.26 334 870 C391.75 870 449.5 870 509 870 C509 927.75 509 985.5 509 1045 C628.46 1045 747.92 1045 871 1045 C871 987.25 871 929.5 871 870 C925.78 870 980.56 870 1037 870 C1037 710.94 1037 551.88 1037 388 C1022.15 388 1007.3 388 992 388 C992 370.18 992 352.36 992 334 C832.61 334 673.22 334 509 334 Z " fill="#2563EB" transform="translate(90,44)"/>
<path d="M0 0 C167.97 0 335.94 0 509 0 C509 167.97 509 335.94 509 509 C341.03 509 173.06 509 0 509 C0 341.03 0 173.06 0 0 Z " fill="#2563EB" transform="translate(1831,1783)"/>
<path d="M0 0 C115.83 0 231.66 0 351 0 C351 115.5 351 231 351 350 C235.17 350 119.34 350 0 350 C0 318.32 0 286.64 0 254 C-103.62 254 -207.24 254 -314 254 C-314 201.86 -314 149.72 -314 96 C-210.38 96 -106.76 96 0 96 C0 64.32 0 32.64 0 0 Z " fill="#020817" transform="translate(1910,993)"/>
<path d="M0 0 C52.14 0 104.28 0 158 0 C158 88.11 158 176.22 158 267 C189.68 267 221.36 267 254 267 C254 382.83 254 498.66 254 618 C138.5 618 23 618 -96 618 C-96 502.17 -96 386.34 -96 267 C-64.32 267 -32.64 267 0 267 C0 178.89 0 90.78 0 0 Z " fill="#020817" transform="translate(1136,1595)"/>
</svg>
